<mxfile host="app.diagrams.net" agent="Mozilla/5.0 (Macintosh; Intel Mac OS X 10_15_7) AppleWebKit/537.36 (KHTML, like Gecko) Chrome/126.0.0.0 Safari/537.36" version="24.7.7">
  <diagram name="Page-1" id="oaQIIAKfHLpsXldNzGFO">
    <mxGraphModel dx="763" dy="492" grid="1" gridSize="10" guides="1" tooltips="1" connect="1" arrows="1" fold="1" page="1" pageScale="1" pageWidth="827" pageHeight="1169" math="0" shadow="0">
      <root>
        <mxCell id="0" />
        <mxCell id="1" parent="0" />
        <mxCell id="cIP_lar1Pl5s2tmm1vay-6" style="edgeStyle=orthogonalEdgeStyle;rounded=0;orthogonalLoop=1;jettySize=auto;html=1;exitX=0.5;exitY=0;exitDx=0;exitDy=0;entryX=0;entryY=0.6;entryDx=0;entryDy=0;entryPerimeter=0;" edge="1" parent="1" source="cIP_lar1Pl5s2tmm1vay-1" target="cIP_lar1Pl5s2tmm1vay-5">
          <mxGeometry relative="1" as="geometry">
            <mxPoint x="55.148148148148096" y="140" as="targetPoint" />
          </mxGeometry>
        </mxCell>
        <mxCell id="cIP_lar1Pl5s2tmm1vay-13" style="edgeStyle=orthogonalEdgeStyle;rounded=0;orthogonalLoop=1;jettySize=auto;html=1;entryX=-0.008;entryY=0.527;entryDx=0;entryDy=0;entryPerimeter=0;" edge="1" parent="1" source="cIP_lar1Pl5s2tmm1vay-1" target="cIP_lar1Pl5s2tmm1vay-11">
          <mxGeometry relative="1" as="geometry">
            <mxPoint x="60.00000000000006" y="500" as="targetPoint" />
            <Array as="points">
              <mxPoint x="60" y="530" />
              <mxPoint x="120" y="530" />
            </Array>
          </mxGeometry>
        </mxCell>
        <mxCell id="cIP_lar1Pl5s2tmm1vay-1" value="&lt;span style=&quot;font-size: 5px;&quot;&gt;Login Screen&lt;/span&gt;&lt;div&gt;&lt;span style=&quot;font-size: 5px;&quot;&gt;&lt;br&gt;&lt;/span&gt;&lt;div&gt;&lt;span style=&quot;font-size: 5px;&quot;&gt;Email - Password&lt;/span&gt;&lt;/div&gt;&lt;div&gt;/&lt;/div&gt;&lt;div&gt;&lt;span style=&quot;font-size: 5px;&quot;&gt;Phone - OTP&lt;/span&gt;&lt;/div&gt;&lt;div&gt;&lt;font style=&quot;font-size: 12px;&quot;&gt;/&lt;/font&gt;&lt;/div&gt;&lt;div&gt;&lt;span style=&quot;font-size: 5px;&quot;&gt;Biometrics&lt;/span&gt;&lt;/div&gt;&lt;/div&gt;" style="rounded=1;whiteSpace=wrap;html=1;fillColor=#fff2cc;strokeColor=#d6b656;" vertex="1" parent="1">
          <mxGeometry x="20" y="220" width="80" height="130" as="geometry" />
        </mxCell>
        <mxCell id="cIP_lar1Pl5s2tmm1vay-28" style="edgeStyle=orthogonalEdgeStyle;rounded=0;orthogonalLoop=1;jettySize=auto;html=1;entryX=0;entryY=0.5;entryDx=0;entryDy=0;" edge="1" parent="1" source="cIP_lar1Pl5s2tmm1vay-3" target="cIP_lar1Pl5s2tmm1vay-27">
          <mxGeometry relative="1" as="geometry">
            <Array as="points">
              <mxPoint x="600" y="160" />
            </Array>
          </mxGeometry>
        </mxCell>
        <mxCell id="cIP_lar1Pl5s2tmm1vay-31" style="edgeStyle=orthogonalEdgeStyle;rounded=0;orthogonalLoop=1;jettySize=auto;html=1;entryX=0;entryY=0.5;entryDx=0;entryDy=0;" edge="1" parent="1" source="cIP_lar1Pl5s2tmm1vay-3" target="cIP_lar1Pl5s2tmm1vay-30">
          <mxGeometry relative="1" as="geometry" />
        </mxCell>
        <mxCell id="cIP_lar1Pl5s2tmm1vay-3" value="&lt;div&gt;&lt;div style=&quot;&quot;&gt;&lt;span style=&quot;font-size: 5px;&quot;&gt;&lt;b&gt;Dashboard / Home Screen&lt;/b&gt;&lt;/span&gt;&lt;/div&gt;&lt;div style=&quot;&quot;&gt;&lt;span style=&quot;font-size: 5px;&quot;&gt;&lt;br&gt;&lt;/span&gt;&lt;/div&gt;&lt;div style=&quot;&quot;&gt;&lt;span style=&quot;font-size: 5px;&quot;&gt;For the video support we can use react native video&amp;nbsp;&lt;/span&gt;&lt;/div&gt;&lt;div style=&quot;&quot;&gt;&lt;span style=&quot;font-size: 5px;&quot;&gt;npm i react-native-video(v6.4.3)&lt;/span&gt;&lt;/div&gt;&lt;div style=&quot;font-size: 5px;&quot;&gt;&lt;br&gt;&lt;/div&gt;&lt;/div&gt;" style="rounded=1;whiteSpace=wrap;html=1;fillColor=#fff2cc;strokeColor=#d6b656;" vertex="1" parent="1">
          <mxGeometry x="550" y="220" width="90" height="120" as="geometry" />
        </mxCell>
        <mxCell id="cIP_lar1Pl5s2tmm1vay-20" style="edgeStyle=orthogonalEdgeStyle;rounded=0;orthogonalLoop=1;jettySize=auto;html=1;" edge="1" parent="1" source="cIP_lar1Pl5s2tmm1vay-5" target="cIP_lar1Pl5s2tmm1vay-15">
          <mxGeometry relative="1" as="geometry" />
        </mxCell>
        <mxCell id="cIP_lar1Pl5s2tmm1vay-23" style="edgeStyle=orthogonalEdgeStyle;rounded=0;orthogonalLoop=1;jettySize=auto;html=1;entryX=1;entryY=0.5;entryDx=0;entryDy=0;" edge="1" parent="1" source="cIP_lar1Pl5s2tmm1vay-5" target="cIP_lar1Pl5s2tmm1vay-16">
          <mxGeometry relative="1" as="geometry">
            <mxPoint x="350" y="319.9999999999999" as="targetPoint" />
            <Array as="points">
              <mxPoint x="500" y="150" />
              <mxPoint x="500" y="400" />
            </Array>
          </mxGeometry>
        </mxCell>
        <mxCell id="cIP_lar1Pl5s2tmm1vay-5" value="&lt;div style=&quot;&quot;&gt;&lt;div style=&quot;&quot;&gt;&lt;span style=&quot;font-size: 5px;&quot;&gt;&lt;b&gt;Email&lt;/b&gt;&lt;/span&gt;&lt;/div&gt;&lt;div style=&quot;&quot;&gt;&lt;span style=&quot;font-size: 5px;&quot;&gt;&lt;br&gt;&lt;/span&gt;&lt;/div&gt;&lt;div style=&quot;&quot;&gt;&lt;span style=&quot;font-size: 5px;&quot;&gt;1) We can use react native firebase auth for emails and any 3rd party authentication&lt;/span&gt;&lt;/div&gt;&lt;div style=&quot;&quot;&gt;&lt;span style=&quot;font-size: 5px;&quot;&gt;&lt;u&gt;npm i @react-native-firebase/auth (v20.3.0)&lt;/u&gt;&lt;/span&gt;&lt;/div&gt;&lt;div style=&quot;&quot;&gt;&lt;span style=&quot;font-size: 5px;&quot;&gt;2) If not going for 3rd parties then we can simply use our backend api&#39;s with the creds&lt;/span&gt;&lt;/div&gt;&lt;/div&gt;" style="rounded=0;whiteSpace=wrap;html=1;fillColor=#dae8fc;strokeColor=#6c8ebf;align=left;" vertex="1" parent="1">
          <mxGeometry x="140" y="50" width="110" height="130" as="geometry" />
        </mxCell>
        <mxCell id="cIP_lar1Pl5s2tmm1vay-21" style="edgeStyle=orthogonalEdgeStyle;rounded=0;orthogonalLoop=1;jettySize=auto;html=1;entryX=0;entryY=0.5;entryDx=0;entryDy=0;" edge="1" parent="1" source="cIP_lar1Pl5s2tmm1vay-7" target="cIP_lar1Pl5s2tmm1vay-15">
          <mxGeometry relative="1" as="geometry">
            <Array as="points">
              <mxPoint x="280" y="240" />
              <mxPoint x="280" y="240" />
            </Array>
          </mxGeometry>
        </mxCell>
        <mxCell id="cIP_lar1Pl5s2tmm1vay-24" style="edgeStyle=orthogonalEdgeStyle;rounded=0;orthogonalLoop=1;jettySize=auto;html=1;entryX=0.5;entryY=0;entryDx=0;entryDy=0;" edge="1" parent="1" source="cIP_lar1Pl5s2tmm1vay-7" target="cIP_lar1Pl5s2tmm1vay-16">
          <mxGeometry relative="1" as="geometry" />
        </mxCell>
        <mxCell id="cIP_lar1Pl5s2tmm1vay-7" value="&lt;div style=&quot;&quot;&gt;&lt;div style=&quot;&quot;&gt;&lt;div&gt;&lt;span style=&quot;font-size: 5px;&quot;&gt;&lt;b&gt;Phone&lt;/b&gt;&lt;/span&gt;&lt;/div&gt;&lt;div&gt;&lt;span style=&quot;font-size: 5px;&quot;&gt;&lt;br&gt;&lt;/span&gt;&lt;/div&gt;&lt;div&gt;&lt;span style=&quot;font-size: 5px;&quot;&gt;1) React Native firebase for phone number and OTP.&lt;/span&gt;&lt;/div&gt;&lt;div&gt;&lt;span style=&quot;font-size: 5px;&quot;&gt;2) Or we can use our Rest api services to authenticate with otp if&amp;nbsp;&lt;/span&gt;&lt;span style=&quot;font-size: 5px; background-color: initial;&quot;&gt;MSG91 is setup in the backend.&lt;/span&gt;&lt;/div&gt;&lt;div&gt;&lt;span style=&quot;font-size: 5px;&quot;&gt;&lt;u&gt;npm i msg91(v2.2.4)&lt;/u&gt;&lt;/span&gt;&lt;/div&gt;&lt;/div&gt;&lt;/div&gt;" style="rounded=0;whiteSpace=wrap;html=1;fillColor=#dae8fc;strokeColor=#6c8ebf;align=left;" vertex="1" parent="1">
          <mxGeometry x="140" y="220" width="110" height="150" as="geometry" />
        </mxCell>
        <mxCell id="cIP_lar1Pl5s2tmm1vay-9" style="edgeStyle=orthogonalEdgeStyle;rounded=0;orthogonalLoop=1;jettySize=auto;html=1;entryX=0;entryY=0.433;entryDx=0;entryDy=0;entryPerimeter=0;" edge="1" parent="1" source="cIP_lar1Pl5s2tmm1vay-1" target="cIP_lar1Pl5s2tmm1vay-7">
          <mxGeometry relative="1" as="geometry" />
        </mxCell>
        <mxCell id="cIP_lar1Pl5s2tmm1vay-22" style="edgeStyle=orthogonalEdgeStyle;rounded=0;orthogonalLoop=1;jettySize=auto;html=1;entryX=0.5;entryY=1;entryDx=0;entryDy=0;" edge="1" parent="1" source="cIP_lar1Pl5s2tmm1vay-11" target="cIP_lar1Pl5s2tmm1vay-15">
          <mxGeometry relative="1" as="geometry">
            <mxPoint x="350" y="299.9999999999999" as="targetPoint" />
            <Array as="points">
              <mxPoint x="420" y="550" />
            </Array>
          </mxGeometry>
        </mxCell>
        <mxCell id="cIP_lar1Pl5s2tmm1vay-25" style="edgeStyle=orthogonalEdgeStyle;rounded=0;orthogonalLoop=1;jettySize=auto;html=1;entryX=0.5;entryY=1;entryDx=0;entryDy=0;" edge="1" parent="1" source="cIP_lar1Pl5s2tmm1vay-11" target="cIP_lar1Pl5s2tmm1vay-16">
          <mxGeometry relative="1" as="geometry" />
        </mxCell>
        <mxCell id="cIP_lar1Pl5s2tmm1vay-11" value="&lt;div style=&quot;&quot;&gt;&lt;div style=&quot;&quot;&gt;&lt;div&gt;&lt;span style=&quot;font-size: 5px;&quot;&gt;&lt;b&gt;Biometrics&lt;/b&gt;&lt;/span&gt;&lt;/div&gt;&lt;div&gt;&lt;span style=&quot;font-size: 5px;&quot;&gt;&lt;b&gt;&lt;br&gt;&lt;/b&gt;&lt;/span&gt;&lt;/div&gt;&lt;div&gt;&lt;span style=&quot;font-size: 5px;&quot;&gt;For Biometrics we can use&amp;nbsp;&lt;/span&gt;&lt;span style=&quot;font-size: 5px; background-color: initial;&quot;&gt;React Native Biometrics.&lt;/span&gt;&lt;/div&gt;&lt;div&gt;&lt;span style=&quot;font-size: 5px;&quot;&gt;&lt;u&gt;npm i react-native-biometrics(v3.0.1)&lt;/u&gt;&lt;/span&gt;&lt;/div&gt;&lt;div&gt;&lt;br&gt;&lt;/div&gt;&lt;div&gt;&lt;span style=&quot;font-size: 5px;&quot;&gt;Or we can go native ( part of R&amp;amp;D )&lt;/span&gt;&lt;/div&gt;&lt;div&gt;&lt;br&gt;&lt;/div&gt;&lt;/div&gt;&lt;/div&gt;" style="rounded=0;whiteSpace=wrap;html=1;fillColor=#dae8fc;strokeColor=#6c8ebf;align=left;" vertex="1" parent="1">
          <mxGeometry x="140" y="450" width="110" height="150" as="geometry" />
        </mxCell>
        <mxCell id="cIP_lar1Pl5s2tmm1vay-15" value="&lt;font style=&quot;font-size: 8px;&quot;&gt;Success&lt;/font&gt;" style="rhombus;whiteSpace=wrap;html=1;fillColor=#d5e8d4;strokeColor=#82b366;" vertex="1" parent="1">
          <mxGeometry x="380" y="200" width="80" height="80" as="geometry" />
        </mxCell>
        <mxCell id="cIP_lar1Pl5s2tmm1vay-19" value="" style="edgeStyle=orthogonalEdgeStyle;rounded=0;orthogonalLoop=1;jettySize=auto;html=1;entryX=0.75;entryY=1;entryDx=0;entryDy=0;" edge="1" parent="1" source="cIP_lar1Pl5s2tmm1vay-16" target="cIP_lar1Pl5s2tmm1vay-1">
          <mxGeometry relative="1" as="geometry">
            <mxPoint x="80" y="400" as="targetPoint" />
          </mxGeometry>
        </mxCell>
        <mxCell id="cIP_lar1Pl5s2tmm1vay-16" value="&lt;font style=&quot;font-size: 8px;&quot;&gt;Failure&lt;/font&gt;" style="rhombus;whiteSpace=wrap;html=1;fillColor=#f8cecc;strokeColor=#b85450;" vertex="1" parent="1">
          <mxGeometry x="320" y="360" width="80" height="80" as="geometry" />
        </mxCell>
        <mxCell id="cIP_lar1Pl5s2tmm1vay-17" style="edgeStyle=orthogonalEdgeStyle;rounded=0;orthogonalLoop=1;jettySize=auto;html=1;entryX=0.01;entryY=0.165;entryDx=0;entryDy=0;entryPerimeter=0;" edge="1" parent="1" source="cIP_lar1Pl5s2tmm1vay-15" target="cIP_lar1Pl5s2tmm1vay-3">
          <mxGeometry relative="1" as="geometry" />
        </mxCell>
        <mxCell id="cIP_lar1Pl5s2tmm1vay-26" value="&lt;div style=&quot;&quot;&gt;&lt;span style=&quot;font-size: 5px;&quot;&gt;&lt;b&gt;Full&amp;nbsp; Video Player Screen&lt;/b&gt;&lt;/span&gt;&lt;/div&gt;&lt;div style=&quot;font-size: 5px;&quot;&gt;&lt;br&gt;&lt;/div&gt;" style="rounded=1;whiteSpace=wrap;html=1;fillColor=#fff2cc;strokeColor=#d6b656;" vertex="1" parent="1">
          <mxGeometry x="730" y="220" width="80" height="120" as="geometry" />
        </mxCell>
        <mxCell id="cIP_lar1Pl5s2tmm1vay-29" style="edgeStyle=orthogonalEdgeStyle;rounded=0;orthogonalLoop=1;jettySize=auto;html=1;entryX=0.628;entryY=0.02;entryDx=0;entryDy=0;entryPerimeter=0;" edge="1" parent="1" source="cIP_lar1Pl5s2tmm1vay-27" target="cIP_lar1Pl5s2tmm1vay-26">
          <mxGeometry relative="1" as="geometry">
            <mxPoint x="780" y="210" as="targetPoint" />
            <Array as="points">
              <mxPoint x="780" y="160" />
              <mxPoint x="780" y="200" />
            </Array>
          </mxGeometry>
        </mxCell>
        <mxCell id="cIP_lar1Pl5s2tmm1vay-27" value="&lt;font style=&quot;font-size: 8px;&quot;&gt;Success&lt;br&gt;(Onclick)&lt;/font&gt;" style="rhombus;whiteSpace=wrap;html=1;fillColor=#d5e8d4;strokeColor=#82b366;" vertex="1" parent="1">
          <mxGeometry x="650" y="120" width="80" height="80" as="geometry" />
        </mxCell>
        <mxCell id="cIP_lar1Pl5s2tmm1vay-30" value="&lt;font style=&quot;font-size: 8px;&quot;&gt;Failure&lt;/font&gt;" style="rhombus;whiteSpace=wrap;html=1;fillColor=#f8cecc;strokeColor=#b85450;" vertex="1" parent="1">
          <mxGeometry x="620" y="360" width="80" height="80" as="geometry" />
        </mxCell>
        <mxCell id="cIP_lar1Pl5s2tmm1vay-32" style="edgeStyle=orthogonalEdgeStyle;rounded=0;orthogonalLoop=1;jettySize=auto;html=1;entryX=1;entryY=0.667;entryDx=0;entryDy=0;entryPerimeter=0;" edge="1" parent="1" source="cIP_lar1Pl5s2tmm1vay-30" target="cIP_lar1Pl5s2tmm1vay-3">
          <mxGeometry relative="1" as="geometry" />
        </mxCell>
      </root>
    </mxGraphModel>
  </diagram>
</mxfile>
